0
SECTION
2
HEADER
9
$INSUNITS
70
4
9
$ACADVER
1
AC1014
9
$HANDSEED
5
FFFF
0
ENDSEC
0
SECTION
2
TABLES
0
TABLE
2
VPORT
5
8
100
AcDbSymbolTable
0
ENDTAB
0
TABLE
2
LTYPE
5
5
100
AcDbSymbolTable
0
LTYPE
5
14
100
AcDbSymbolTableRecord
100
AcDbLinetypeTableRecord
2
BYBLOCK
70
0
0
LTYPE
5
15
100
AcDbSymbolTableRecord
100
AcDbLinetypeTableRecord
2
BYLAYER
70
0
0
ENDTAB
0
TABLE
2
LAYER
5
2
100
AcDbSymbolTable
70
2
0
LAYER
5
50
100
AcDbSymbolTableRecord
100
AcDbLayerTableRecord
2
0
70
0
6
CONTINUOUS
0
ENDTAB
0
TABLE
2
STYLE
5
3
100
AcDbSymbolTable
70
1
0
STYLE
5
11
100
AcDbSymbolTableRecord
100
AcDbTextStyleTableRecord
2
STANDARD
70
0
0
ENDTAB
0
TABLE
2
VIEW
5
6
100
AcDbSymbolTable
70
0
0
ENDTAB
0
TABLE
2
UCS
5
7
100
AcDbSymbolTable
70
0
0
ENDTAB
0
TABLE
2
APPID
5
9
100
AcDbSymbolTable
70
2
0
APPID
5
12
100
AcDbSymbolTableRecord
100
AcDbRegAppTableRecord
2
ACAD
70
0
0
ENDTAB
0
TABLE
2
DIMSTYLE
5
A
100
AcDbSymbolTable
70
1
0
ENDTAB
0
TABLE
2
BLOCK_RECORD
5
1
100
AcDbSymbolTable
70
1
0
BLOCK_RECORD
5
1F
100
AcDbSymbolTableRecord
100
AcDbBlockTableRecord
2
*MODEL_SPACE
0
BLOCK_RECORD
5
1B
100
AcDbSymbolTableRecord
100
AcDbBlockTableRecord
2
*PAPER_SPACE
0
ENDTAB
0
ENDSEC
0
SECTION
2
BLOCKS
0
BLOCK
5
20
100
AcDbEntity
100
AcDbBlockBegin
2
*MODEL_SPACE
0
ENDBLK
5
21
100
AcDbEntity
100
AcDbBlockEnd
0
BLOCK
5
1C
100
AcDbEntity
100
AcDbBlockBegin
2
*PAPER_SPACE
0
ENDBLK
5
1D
100
AcDbEntity
100
AcDbBlockEnd
0
ENDSEC
0
SECTION
2
ENTITIES
0
CIRCLE
5
100
100
AcDbEntity
8
0
100
AcDbCircle
10
35.523425694388749
20
50.452201538297814
30
0
40
3.0000000000000004
210
-0
220
0
230
1
0
CIRCLE
5
101
100
AcDbEntity
8
0
100
AcDbCircle
10
-29.903108067760957
20
-5.5052250865074148
30
0
40
3.0000000000000004
210
-0
220
0
230
1
0
CIRCLE
5
102
100
AcDbEntity
8
0
100
AcDbCircle
10
-33.906661464758841
20
50.597637731111561
30
0
40
3.0000000000000004
210
-0
220
0
230
1
0
CIRCLE
5
103
100
AcDbEntity
8
0
100
AcDbCircle
10
31.531923036672719
20
-5.5320194144412449
30
0
40
3.0000000000000004
210
-0
220
0
230
1
0
CIRCLE
5
104
100
AcDbEntity
8
0
100
AcDbCircle
10
-0.94621320118536856
20
120.60168932315716
30
0
40
162.5
210
0
220
0
230
1
0
LWPOLYLINE
5
105
100
AcDbEntity
8
0
100
AcDbPolyline
90
4
70
1
43
0.0
10
-84.375713494088473
20
108.37084476777549
10
-130.66167788566224
20
116.53230911812122
10
-135.0028823273355
20
91.912115292816011
10
-88.716917935761728
20
83.750650942470287
0
CIRCLE
5
106
100
AcDbEntity
8
0
100
AcDbCircle
10
117.81072121335109
20
40.389410854519809
30
0
40
5
210
0
220
0
230
1
0
LINE
5
107
100
AcDbEntity
8
0
100
AcDbLine
10
-111.85990013154863
20
87.831383117643171
30
0
11
-112.42425670896615
21
84.630757920353489
31
0
0
LINE
5
108
100
AcDbEntity
8
0
100
AcDbLine
10
-107.51869568987537
20
112.45157694294835
30
0
11
-106.95433911245784
21
115.65220214023803
31
0
0
LINE
5
109
100
AcDbEntity
8
0
100
AcDbLine
10
-111.85990013154863
20
87.831383117643156
30
0
11
-135.0028823273355
21
91.912115292816011
31
0
0
LINE
5
110
100
AcDbEntity
8
0
100
AcDbLine
10
-111.85990013154863
20
87.831383117643156
30
0
11
-88.716917935761728
21
83.750650942470287
31
0
0
ARC
5
111
100
AcDbEntity
8
0
100
AcDbCircle
10
-109.09065036264855
20
105.81109336806917
30
0
40
21.441071357326578
210
0
220
0
230
1
100
AcDbArc
50
228.0220611296983
51
261.05550338941794
0
ARC
5
112
100
AcDbEntity
8
0
100
AcDbCircle
10
-108.40247024258341
20
106.61266855398368
30
0
40
22.346793091763363
210
0
220
0
230
1
100
AcDbArc
50
259.63189868710822
51
291.29053679377552
0
LINE
5
113
100
AcDbEntity
8
0
100
AcDbLine
10
-84.375713494088473
20
108.37084476777549
30
0
11
-107.51869568987537
21
112.45157694294835
31
0
0
LINE
5
114
100
AcDbEntity
8
0
100
AcDbLine
10
-107.51869568987537
20
112.45157694294835
30
0
11
-130.66167788566224
21
116.53230911812122
31
0
0
ARC
5
115
100
AcDbEntity
8
0
100
AcDbCircle
10
-110.83112060602582
20
92.153597306557756
30
0
40
23.816252095540413
210
0
220
-0
230
1
100
AcDbArc
50
80.631773965587769
51
110.29066151529612
0
ARC
5
116
100
AcDbEntity
8
0
100
AcDbCircle
10
-112.34157986671603
20
90.158821897101632
30
0
40
26.056377322365382
210
0
220
-0
230
1
100
AcDbArc
50
51.009716576913178
51
78.067847942203201
0
ARC
5
117
100
AcDbEntity
8
0
100
AcDbCircle
10
7.5461085768740563
20
234.21418237843227
30
0
40
23.816252095540449
210
0
220
0
230
1
100
AcDbArc
50
185.6317739655876
51
215.29066151529611
0
LINE
5
118
100
AcDbEntity
8
0
100
AcDbLine
10
-14.965712783747055
20
255.57081085074043
30
0
11
-12.917552829177081
21
232.16023544558436
31
0
0
ARC
5
119
100
AcDbEntity
8
0
100
AcDbCircle
10
-6.0964864378012997
20
232.36052744726618
30
0
40
21.441071357326553
210
-0
220
0
230
1
100
AcDbArc
50
-26.977938870301628
51
6.0555033894180159
0
LWPOLYLINE
5
120
100
AcDbEntity
8
0
100
AcDbPolyline
90
4
70
1
43
0.0
10
14.035474577686522
20
210.92855360911986
10
9.939154668546589
20
257.74970441943191
10
-14.965712783747055
20
255.57081085074043
10
-10.86939287460712
20
208.74966004042835
0
ARC
5
121
100
AcDbEntity
8
0
100
AcDbCircle
10
-7.0488627331224087
20
232.81779547417958
30
0
40
22.346793091763345
210
0
220
-0
230
1
100
AcDbArc
50
4.6318986871081256
51
36.290536793775566
0
LINE
5
122
100
AcDbEntity
8
0
100
AcDbLine
10
11.987314623116518
20
234.33912901427587
30
0
11
15.224947391914686
21
234.62238517820572
31
0
0
LINE
5
123
100
AcDbEntity
8
0
100
AcDbLine
10
-12.917552829177087
20
232.16023544558439
30
0
11
-16.155185597975287
21
231.87697928165451
31
0
0
LINE
5
124
100
AcDbEntity
8
0
100
AcDbLine
10
-12.917552829177081
20
232.16023544558436
30
0
11
-10.869392874607119
21
208.74966004042835
31
0
0
LINE
5
125
100
AcDbEntity
8
0
100
AcDbLine
10
11.987314623116559
20
234.33912901427584
30
0
11
14.035474577686522
21
210.92855360911986
31
0
0
ARC
5
126
100
AcDbEntity
8
0
100
AcDbCircle
10
9.8638492860321438
20
233.27147663564352
30
0
40
26.056377322365357
210
0
220
0
230
1
100
AcDbArc
50
156.00971657691309
51
183.06784794220312
0
LINE
5
127
100
AcDbEntity
8
0
100
AcDbLine
10
11.987314623116559
20
234.33912901427584
30
0
11
9.9391546685465872
21
257.74970441943191
31
0
0
CIRCLE
5
128
100
AcDbEntity
8
0
100
AcDbCircle
10
-85.000001266598701
20
17.999999970197678
30
0
40
9
210
0
220
0
230
1
0
CIRCLE
5
129
100
AcDbEntity
8
0
100
AcDbCircle
10
83.000001236796521
20
36.000000208616271
30
0
40
9
210
0
220
0
230
1
0
CIRCLE
5
130
100
AcDbEntity
8
0
100
AcDbCircle
10
83.000001236796521
20
47.000000208616264
30
0
40
9
210
0
220
0
230
1
0
LINE
5
131
100
AcDbEntity
8
0
100
AcDbLine
10
74.000001236796521
20
36.000000208616271
30
0
11
74.000001236796521
21
47.000000208616271
31
0
0
LINE
5
132
100
AcDbEntity
8
0
100
AcDbLine
10
92.000001236796521
20
47.000000208616228
30
0
11
92.000001236796507
21
36.000000208616228
31
0
0
CIRCLE
5
133
100
AcDbEntity
8
0
100
AcDbCircle
10
12.26097453837218
20
208.26375537839516
30
0
40
3.0000000000000027
210
0
220
-0
230
1
0
CIRCLE
5
134
100
AcDbEntity
8
0
100
AcDbCircle
10
-82.813399356724759
20
105.60597213109568
30
0
40
3.0000000000000009
210
-0
220
0
230
1
0
CIRCLE
5
135
100
AcDbEntity
8
0
100
AcDbCircle
10
-108.07289055094728
20
13.475011973395201
30
0
40
1.9999999999999976
210
0
220
0
230
1
0
CIRCLE
5
136
100
AcDbEntity
8
0
100
AcDbCircle
10
-40.533912433429677
20
268.3449942126482
30
0
40
2.0000000000000093
210
0
220
0
230
1
0
CIRCLE
5
137
100
AcDbEntity
8
0
100
AcDbCircle
10
145.39154948160845
20
81.390603990125285
30
0
40
2.0000000000000036
210
0
220
0
230
1
0
CIRCLE
5
138
100
AcDbEntity
8
0
100
AcDbCircle
10
128.00488460840523
20
86.049346801970643
30
0
40
2.0000000000000036
210
0
220
0
230
1
0
CIRCLE
5
139
100
AcDbEntity
8
0
100
AcDbCircle
10
-95.344968489589434
20
26.202934034753067
30
0
40
2.0000000000000018
210
0
220
0
230
1
0
CIRCLE
5
140
100
AcDbEntity
8
0
100
AcDbCircle
10
-35.875169621584305
20
250.95832933944502
30
0
40
1.9999999999999876
210
0
220
0
230
1
0
LINE
5
141
100
AcDbEntity
8
0
100
AcDbLine
10
-109.48710411332037
20
14.889225535768295
30
0
11
-96.759182051962512
21
27.617147597126163
31
0
0
LINE
5
142
100
AcDbEntity
8
0
100
AcDbLine
10
-106.6586769885742
20
12.060798411022111
30
0
11
-93.930754927216327
21
24.788720472379971
31
0
0
LINE
5
143
100
AcDbEntity
8
0
100
AcDbLine
10
127.48724651820021
20
84.117495149392482
30
0
11
144.8739113914034
21
79.458752337547139
31
0
0
LINE
5
144
100
AcDbEntity
8
0
100
AcDbLine
10
128.52252269861026
20
87.981198454548789
30
0
11
145.9091875718135
21
83.322455642703446
31
0
0
LINE
5
145
100
AcDbEntity
8
0
100
AcDbLine
10
-42.465764086007816
20
267.82735612244318
30
0
11
-37.807021274162416
21
250.44069124923996
31
0
0
LINE
5
146
100
AcDbEntity
8
0
100
AcDbLine
10
-38.602060780851531
20
268.86263230285323
30
0
11
-33.943317969006166
21
251.47596742965004
31
0
0
CIRCLE
5
147
100
AcDbEntity
8
0
100
AcDbCircle
10
-95.946213201185373
20
45.601689323157153
30
0
40
5
210
0
220
0
230
1
0
CIRCLE
5
148
100
AcDbEntity
8
0
100
AcDbCircle
10
94.053786798814656
20
45.601689323157153
30
0
40
5.0000000000000036
210
0
220
0
230
1
0
CIRCLE
5
149
100
AcDbEntity
8
0
100
AcDbCircle
10
94.053786798814656
20
195.60168932315716
30
0
40
5.0000000000000089
210
0
220
0
230
1
0
CIRCLE
5
150
100
AcDbEntity
8
0
100
AcDbCircle
10
-95.946213201185373
20
195.60168932315716
30
0
40
4.9999999999999982
210
0
220
0
230
1
0
CIRCLE
5
151
100
AcDbEntity
8
0
100
AcDbCircle
10
0
20
25
30
0
40
22.360679774997898
210
0
220
0
230
1
0
CIRCLE
5
152
100
AcDbEntity
8
0
100
AcDbCircle
10
80.97862317129497
20
171.60168932315713
30
0
40
1.7499999999999982
210
0
220
0
230
1
0
CIRCLE
5
153
100
AcDbEntity
8
0
100
AcDbCircle
10
80.97862317129497
20
69.601689323157174
30
0
40
1.7499999999999973
210
0
220
0
230
1
0
CIRCLE
5
154
100
AcDbEntity
8
0
100
AcDbCircle
10
-45.021376828705044
20
171.60168932315713
30
0
40
1.7500000000000031
210
0
220
0
230
1
0
CIRCLE
5
155
100
AcDbEntity
8
0
100
AcDbCircle
10
-45.021376828705044
20
69.601689323157174
30
0
40
1.7500000000000058
210
0
220
0
230
1
0
ENDSEC
0
SECTION
2
OBJECTS
0
DICTIONARY
5
C
100
AcDbDictionary
3
ACAD_GROUP
350
D
3
ACAD_MLINESTYLE
350
17
0
DICTIONARY
5
D
100
AcDbDictionary
0
DICTIONARY
5
1A
330
C
100
AcDbDictionary
0
DICTIONARY
5
17
100
AcDbDictionary
0
ENDSEC
0
EOF
